<?xml version="1.0" encoding="UTF-8"?>
<!-- Generator: Adobe Illustrator 23.0.1, SVG Export Plug-In . SVG Version: 6.00 Build 0)  -->
<svg version="1.1" id="Ebene_1" xmlns="http://www.w3.org/2000/svg" xmlns:xlink="http://www.w3.org/1999/xlink" x="0px" y="0px" viewBox="0 0 987.99 493.81" style="enable-background:new 0 0 987.99 493.81;" xml:space="preserve">
<style type="text/css">
	.st0{fill:#FF0000;}
	.st1{fill:#BBBCBC;}
	.st2{fill:#181716;}
	.st3{fill:#6E6E6E;}
</style>
<polygon class="st0" points="405.46,0 557.3,0 527.7,121.8 648.03,121.8 629.95,195.89 626.19,195.87 643.09,125.48 523.26,125.46   553.09,3.82 408.46,3.82 405.55,16.11 533.87,16.11 504.45,138.55 624.22,138.55 610.51,195.89 592.52,195.86 602.02,156.68   481.43,156.68 511.46,34.87 381.61,34.88 374.31,65.91 355.57,68.25 368.01,16.11 401.45,16.11 "/>
<path class="st1" d="M451.54,89.37c2.93-3.32,5.9-7.19,10.58-7.92c-0.53,4.17-1.45,8.37-3.57,12.05  c-4.13,7.83-11.46,13.25-16.2,20.63c-3.31,4.93-3.19,11.17-5.79,16.39c-1.48,3.22-5.72,5-8.98,3.44  c-6.67-2.46-10.05-9.85-16.94-11.89c-10.51-3.21-21.86-2.43-32.45-0.02c4.92,6.22,11.66,10.61,16.95,16.49  c6.14,5.77,12.01,12.55,20.37,15.05c7.06,2.48,15.02,0.83,21.24-3.08c5.44-3.12,10.7-8.02,17.48-6.9c-1,3.22-1.99,6.55-4.05,9.28  c-4.12,5.62-10.64,8.71-15.2,13.9c-4.09,4.29-6.15,10.52-11.54,13.51c-2.97,1.65-6.44-0.32-8.21-2.81  c-3.23-4.59-3.41-11.21-8.34-14.58c-11-7.45-25.56-5.42-36.73-12.53c-6.78-4.2-14.2-8.48-18.07-15.77  c-2.05-3.43-3.49-7.68-7.15-9.75c-3.49-0.7-6.42,2-8.9,4.06c-5.01,4.79-7.6,11.49-12.53,16.38c-10.96,11.26-25.23,18.54-36.52,29.43  c-5.09,4.98-7.02,12.17-11.68,17.48c-1.19,1.42-3.14,1.62-4.83,1.94c-12.11,1.62-24.12,4.07-35.92,7.25  c-2.98,0.79-6.03,1.32-9.08,1.74c0.45-10.39,4.92-20.08,5.62-30.43c0.39-5.04,0.2-10.1-0.27-15.13c4.51-2.47,9.15-4.69,13.56-7.35  c27.01-16.76,48.1-41.9,76.77-56.14c18.29-7.64,39.13-8.38,58.27-3.68c12.43,2.84,24.26,7.71,36.17,12.14  c5.99,2.39,13.04,2.92,18.97,0.07C441.08,99.48,446.86,94.87,451.54,89.37"/>
<path class="st2" d="M681.04,110.78c7.72-4.11,16.77-4.56,25.32-3.92c5.31,0.6,11.44,2.25,14.21,7.3  c2.67,4.55,2.25,10.04,1.38,15.02c-6.64,0.65-13.31,0.62-19.93,1.41c0.01-2.92,0.54-6.64-2.25-8.55c-4.66-2.85-12.07-1.04-14.06,4.3  c-0.84,2.1,0.36,4.48,2.53,5.06c7.93,2.85,16.96,3.94,23.52,9.68c4.31,3.66,5.17,9.77,4.09,15.05  c-2.39,11.4-10.79,21.32-21.53,25.77c-7.78,3.32-16.46,3.48-24.75,2.64c-4.84-0.71-10.17-2.13-13.23-6.25  c-3.87-5.77-3.65-13.11-2.36-19.65c6.71-0.58,13.44-0.91,20.17-1.38c-0.47,3.89-0.89,8.84,2.75,11.4  c6.23,3.68,15.87-0.03,17.21-7.38c0.73-3.27-1.93-5.86-4.78-6.8c-7.08-2.66-15.14-3.87-20.79-9.33c-3.61-3.52-4.56-8.92-3.57-13.72  C666.7,122.53,673.05,114.87,681.04,110.78"/>
<path class="st2" d="M876.6,112.5c7.51-5.12,16.9-6.22,25.77-5.81c5.82,0.28,12.43,1.58,16.15,6.51c3.43,4.56,2.59,10.65,2.01,15.95  c-6.61,0.71-13.28,0.62-19.88,1.43c-0.08-2.83,0.34-6.41-2.19-8.36c-4.89-3.35-13.1-1-14.56,5.02c-0.37,2.16,1.44,3.82,3.35,4.36  c7.31,2.45,15.26,3.73,21.66,8.31c4.17,2.99,6.39,8.24,5.86,13.33c-1.41,13.06-10.96,24.67-23.21,29.15  c-7.69,2.92-16.14,2.98-24.21,2.04c-5.05-0.86-10.93-2.55-13.35-7.54c-3.1-5.56-2.5-12.16-1.62-18.21  c6.77-0.65,13.58-0.95,20.37-1.41c-0.71,4.03-0.94,9.29,3.11,11.67c5.94,2.99,14.36-0.06,16.48-6.54c1.19-2.78-0.4-6.05-3.08-7.22  c-5.28-2.65-11.34-3.29-16.55-6.12c-5.07-2.28-9.39-6.99-9.6-12.77C862.81,126.63,868.75,117.7,876.6,112.5"/>
<path class="st2" d="M942.98,112.92c7.31-5.24,16.58-6.58,25.37-6.27c5.93,0.18,12.64,1.24,16.73,5.99  c3.88,4.54,2.92,10.98,2.45,16.46c-6.6,0.81-13.27,0.64-19.86,1.48c0.02-3.01,0.27-6.93-2.71-8.72c-4.74-2.59-11.66-0.74-13.82,4.41  c-0.87,2.09,0.4,4.44,2.52,5.1c7.68,2.75,16.24,3.87,22.84,9.02c4.16,3.23,5.92,8.8,5.12,13.91c-1.74,12.41-10.83,23.35-22.45,27.85  c-7.84,3.15-16.53,3.25-24.81,2.29c-5.12-0.87-11.1-2.61-13.46-7.73c-2.98-5.53-2.48-12.05-1.5-18.03  c6.78-0.64,13.59-0.96,20.39-1.4c-0.73,4.05-1.01,9.31,3.09,11.68c6.27,3.16,15.17-0.51,16.76-7.54c0.73-3.23-1.88-5.89-4.69-6.88  c-5.76-2.29-12.06-3.3-17.38-6.65c-4.46-2.54-7.64-7.39-7.51-12.6C930.26,126.27,935.69,117.97,942.98,112.92"/>
<path class="st2" d="M733.06,107.77c6.63,0.03,13.26,0.01,19.9,0.01c-2.05,14.15-3.84,28.33-5.81,42.49  c7.82-14.13,15.56-28.31,23.31-42.48c6.58-0.01,13.17,0,19.75-0.01c-0.75,14.15-1.7,28.28-2.3,42.43  c6.51-14.18,13.3-28.23,19.84-42.4c6.6-0.04,13.21-0.05,19.82,0.01c-12.72,25.28-25.26,50.64-37.9,75.96  c-6.85-0.04-13.71,0-20.56-0.03c1.1-15.92,1.73-31.87,2.72-47.81c-8.75,15.94-17.5,31.88-26.25,47.82c-6.84,0-13.67,0.01-20.51,0  C727.86,158.45,730.39,133.1,733.06,107.77"/>
<path class="st2" d="M812.13,183.76c7.79-25.3,15.32-50.68,23.06-75.99c6.96,0.03,13.93,0,20.89,0.02  c-7.75,25.31-15.3,50.68-23.04,75.99C826.07,183.74,819.1,183.78,812.13,183.76"/>
<path class="st0" d="M206.76,117.08c1.5-0.78,3.03-1.51,4.58-2.2c0.04,0.51,0.11,1.51,0.14,2.01c-1.52,0.64-2.99,1.37-4.46,2.08  c-0.5,0.25-1.49,0.74-1.99,0.98c-1.73,0.92-3.42,1.92-5.04,3.02c-1.35,0.85-8.12,4.69-10,6c-2.77,1.49-10.67,6.75-12.05,7.56  c-1.35,0.76-2.66,1.58-3.94,2.44c-1.38,0.84-2.7,1.77-4.09,2.57c-1.34,0.76-2.65,1.57-3.93,2.42c-1.38,0.87-6.3,4.45-6.3,4.45  s-2.83-3.32-3.85-4.33c2.59-2.59,5.53-3.3,8.2-5.11c0.94-0.48,1.88-0.96,2.83-1.43c0.5-0.24,1.49-0.74,1.99-0.99  c1.33-0.67,2.67-1.34,4-2.02c4.77-2.43,16.05-8.52,17.01-8.99C194.9,122.81,206.32,117.16,206.76,117.08"/>
<path class="st1" d="M107.55,128.47c7.37-3.91,17.1-5.75,24.51-0.94c8.07,5.09,15.24,11.46,22.01,18.16  c4.29,4.11,8.28,8.63,11.14,13.88c2.15,4.22,2.77,8.99,3.91,13.55c5.69-0.24,10.59-3.36,15.75-5.4c5.29-2.2,10.87-3.69,16.58-4.24  c-1.68,9.08-6.22,17.25-8.8,26.06c-4.5,12.75-5.94,26.28-7.74,39.6c-7.99-0.52-15.26-5.3-23.4-4.5c-4.77,0.5-8.21,4.14-12.04,6.61  c-9.72,6.11-21.57,9.31-33,7.2c-11.79-2.51-19.97-16.21-15.67-27.68c1.75-5.86,7.49-8.83,12.4-11.69c8.49-5.01,17.73-9.8,27.88-9.48  c1.56,1.79,3,3.72,4.83,5.25c1.35,0.11,2.71-0.02,4.07-0.07c0.08-3.55-0.03-7.19-1.4-10.52c-2.84-7.41-4.96-15.18-9.07-22.04  c-2.64-4.54-6.15-8.48-9.28-12.68c-2.3-3.04-4.87-6.08-8.42-7.7c-4.21-1.96-9.17-1.34-13.28,0.58c-10.37,4.73-21.4,7.99-31.41,13.52  c-5.31,2.93-10.65,5.84-15.6,9.36c-6.71,4.91-12.5,10.92-18.98,16.12c-2.69,2.09-5.64,4.22-9.15,4.52c-2.45-0.19-4.7-1.33-6.98-2.17  c0.92-1.55,1.79-3.15,2.94-4.55c11.67-12.02,25.51-21.74,40.16-29.79C82.31,142.67,94.74,135.22,107.55,128.47"/>
<path class="st3" d="M201.89,146.05c4.62-1.12,9.16-2.58,13.56-4.37c3.96,1.03,7.98,2.98,10.03,6.72  c2.84,5.46,3.73,11.76,3.38,17.85c-0.93,13.69-5.17,26.84-7.48,40.3c16.7-2.81,33.09-7.64,50.03-8.98  c13.35-1.77,27.35-1.23,39.99,3.77c9.32,3.61,16.05,11.53,21.1,19.87c11.52,16.91,18.43,36.33,25.33,55.43  c9.21,25.46,15.03,52.04,18.82,78.82c0.37,4.58,0.65,9.45-1.37,13.72c-3.24,6.7-9.77,10.88-13.75,17.06  c-5.39,7.93-9.27,16.75-14.12,25.01c-7.31,12.23-17.99,22.8-21.51,37c-3.09,9.41,1.19,18.84,3.57,27.87  c1.66,5.63,1.85,11.53,1.53,17.36c-3.52,0.91-7.46-0.07-9.83-2.89c-4.91-5.46-5.19-13.28-8.43-19.63  c-2.69-6.3-8.53-11.41-8.54-18.67c-0.46-4.99,2.24-9.44,4.78-13.49c8.97-12.97,17.64-26.59,21.64-42.02  c2.51-9.01,3.06-18.4,5.28-27.47c1.02-4.62,3.4-8.75,5.07-13.13c-3.98-0.29-7.67,1.69-10.9,3.79c-8.82,6.09-16.24,14.09-25.65,19.35  c-9.01,5.26-19.35,9.56-25.5,18.41c-4.43,6.18-5.67,14.15-4.63,21.58c0.94,5.94-0.11,12.3-3.62,17.28  c-3.63-1.14-7.21-2.94-9.23-6.32c-4.31-6.59-0.93-14.83-3.23-21.98c-0.96-5.44-4.66-11-2.19-16.53c2.22-5.95,8.59-8.41,13.73-11.23  c8.87-4.21,16.95-10.11,23.34-17.59c7.71-8.74,12.81-19.3,19.12-29.01c3.61-5.68,9.1-10.03,15.42-12.34  c-1.16-9.03-7.31-16.31-9.44-25.03c-1.7-6.34-1.31-13.1-3.79-19.25c-4.34,0.41-8.74,1.96-13.1,0.86c-4.83-1.13-9.69-3.02-13.28-6.56  c-2.63-2.73-3.59-7.22-7.47-8.57c-4.95-0.23-9.66,1.75-14.27,3.28c-15.56,5.64-31,13.11-47.87,13.38  c-6.52-0.62-13.49-2.16-18.29-6.95c-3.27-2.89-5.24-6.85-7.89-10.24c-2.8-0.23-4.96,1.97-6.99,3.58  c-6.54,6.18-10.8,14.84-18.82,19.4c-14.29,7.3-33.5-3.3-36.23-18.79c-0.96-5.69,1.31-11.53,4.93-15.86  c3.99-3.66,8.81-6.72,14.23-7.64c2.85-0.53,5.86-1.12,8.05-3.18c2.56-1.86,4.4-5.19,7.82-5.5c6.1-0.58,12.04,2.3,18.14,0.95  c1.44-1.53,3.19-2.85,4.21-4.71c1.12-4.11,1.06-8.42,1.64-12.62c2.06-15.51,5.81-30.94,12.78-45.01c2.4-4.54,2.92-9.7,2.62-14.76  c-11.9,1.03-22.17,8.14-33.98,9.56c2.97-6.03,8.91-9.62,14.19-13.38C189.98,150.78,195.64,147.55,201.89,146.05"/>
<path class="st0" d="M106.45,173.22c8.47-5.57,16.91-11.26,25.99-15.83c1.28,2,2.49,4.04,3.66,6.11c-1.88,1.93-3.89,3.74-6.05,5.35  c-18.47,14.34-37.22,28.71-52.25,46.74c-9.6-0.76-14.34-2.63-21.79-5.15c4.01-4.37,8.39-6.82,13.08-10.4  C81.32,190.79,93.81,181.9,106.45,173.22"/>
<path class="st1" d="M0.83,199.71c3.44-4.34,9.63-6.82,15.01-4.93c7.65,2.31,13.2,8.62,20.6,11.45c8.23,3.22,16.49,6.36,24.78,9.41  c5.21,1.91,10.78,2.42,16.28,2.73c5.55,0.29,11.01,1.38,16.45,2.44c0.88,4.56,2.35,8.98,4.55,13.08c-15.16,0.17-30.7-2.3-44.28-9.32  c-6.66-3.1-12.56-7.93-19.82-9.62c-5.07-1.31-10.37-1.64-15.37-3.28c-5.96-1.97-12.02-3.61-18.11-5.15  C0.46,204.33-0.84,201.73,0.83,199.71"/>
<path class="st2" d="M900.16,225.75c6.3-12.69,17.83-24.06,32.45-25.76c7.3-0.63,15.1-1.04,22,1.87c6.89,3.49,8.48,11.96,8.25,18.99  c-6.53,1.56-13.15,2.68-19.69,4.18c-0.28-3.06-1.12-6.67-4.26-8.01c-6.08-2.54-12.96,0.96-16.9,5.69  c-5.13,6.39-7.4,14.54-8.99,22.43c-0.89,5.25-1.14,12.39,4.48,15.13c6.6,2.67,13.57-0.56,19.27-3.89c0.73-2.43,1.4-4.88,2.09-7.32  c-4.32,0.01-8.64,0.02-12.95,0c1.53-5.18,2.95-10.39,4.38-15.59c9.93,0,19.87-0.03,29.81,0.01c-3.11,10.77-5.96,21.62-9.14,32.37  c-7.56,4.78-15.34,9.77-24.34,11.21c-7.59,1.25-15.81,1.51-22.98-1.67c-6.3-2.81-9.76-9.54-10.49-16.14  C891.86,247.69,895.2,236.1,900.16,225.75"/>
<path class="st2" d="M557.72,200.75c17.2,0,34.4-0.04,51.6,0.02c-1.65,5.33-2.82,10.82-4.68,16.09  c-10.73,0.16-21.46-0.03-32.19,0.08c-1.07,4.03-2.18,8.06-3.38,12.06c10.01,0.01,20.03,0.01,30.05,0  c-1.5,5.15-2.91,10.32-4.36,15.48c-9.99,0.01-19.98-0.01-29.97,0.01c-1.36,4.99-2.79,9.95-4.16,14.93  c11.09,0.02,22.18-0.01,33.28,0.02c-1.73,5.74-3.19,11.56-4.92,17.3c-17.51-0.07-35.01,0-52.51-0.04  C543.6,251.39,550.62,226.06,557.72,200.75"/>
<path class="st2" d="M632.31,201.32c6.16-1.9,12.74-2.13,19.11-1.34c4.48,0.73,9.36,2.47,11.78,6.61  c2.88,4.61,2.07,10.31,1.64,15.44c-6.15,0.8-12.37,0.71-18.51,1.43c-0.07-2.95,0.55-6.74-2.31-8.65  c-4.41-2.67-11.18-0.58-12.77,4.51c-1.15,2.34,0.9,4.65,3.06,5.31c6.68,2.33,13.9,3.79,19.67,8.13c4.4,3.28,6.18,9.16,5.37,14.46  c-1.24,10.12-7.26,19.41-15.63,25.12c-7.96,5.41-18.11,6.36-27.43,5.09c-4.66-0.69-9.82-2.36-12.35-6.66  c-3.32-5.8-3.24-12.81-1.93-19.18c6.23-0.71,12.51-0.79,18.73-1.5c-0.69,3.86-1.12,8.69,2.36,11.41c6.16,4.28,15.92-0.85,15.98-8.34  c0.29-3.57-3.3-5.48-6.17-6.46c-6.08-2.09-12.73-3.74-17.36-8.5c-3.47-3.67-4.4-9.04-3.43-13.88  C614.06,213.79,622.06,204.55,632.31,201.32"/>
<path class="st2" d="M677.03,200.74c19.51,0.02,39.03-0.03,58.54,0.02c-1.72,6.27-3.56,12.5-5.19,18.79  c-6.58,0.05-13.16-0.03-19.73,0.05c-5.26,19.06-10.62,38.09-15.95,57.12c-6.42-0.03-12.84,0.02-19.25-0.03  c5.39-19,10.59-38.07,15.98-57.08c-6.58-0.1-13.15-0.01-19.72-0.05C673.58,213.31,675.22,207,677.03,200.74"/>
<path class="st2" d="M743.22,200.74c6.43,0.01,12.87-0.04,19.31,0.04c-5.36,19.06-10.64,38.14-16.01,57.19c10,0.03,20,0,30,0.02  c-1.64,6.25-3.49,12.45-5.15,18.69c-16.45,0.07-32.9,0.01-49.35,0.04C729.15,251.41,736.2,226.08,743.22,200.74"/>
<path class="st2" d="M801.25,200.74c6.44,0.01,12.88-0.04,19.33,0.04c-7.08,25.29-14.13,50.6-21.17,75.91  c-6.47,0.05-12.93,0-19.39,0.03C787.14,251.41,794.2,226.07,801.25,200.74"/>
<path class="st2" d="M835,200.74c5.97,0,11.95,0,17.93,0c3.86,14.01,7.97,27.95,11.67,42.01c4.11-13.95,7.86-28,11.78-42  c6.07-0.01,12.13-0.04,18.21,0.02c-7.11,25.29-14.19,50.58-21.16,75.91c-6.06,0.07-12.11,0.01-18.16,0.04  c-3.94-13.89-7.77-27.81-11.78-41.68c-3.86,13.9-7.69,27.82-11.63,41.7c-6.05-0.06-12.09-0.02-18.13-0.03  C820.9,251.41,827.9,226.06,835,200.74"/>
<path class="st2" d="M395.6,200.83c6.11-0.02,12.22-0.03,18.33,0.01c-1.82,13.94-3.61,27.89-5.16,41.85  c7.32-13.85,14.18-27.94,21.34-41.88c6.05,0.02,12.11-0.01,18.17,0.02c-0.66,13.98-1.49,27.96-2.09,41.94  c6.29-13.89,12.22-27.94,18.3-41.92c6.08-0.06,12.15-0.04,18.23-0.02c-11.67,25.27-23.23,50.59-34.94,75.84  c-6.28-0.02-12.55-0.01-18.82-0.01c0.73-15.87,1.76-31.72,2.23-47.6c-7.91,15.91-15.99,31.73-24.02,47.57  c-6.31,0.06-12.62,0.02-18.93,0.03C390.76,251.39,393.1,226.1,395.6,200.83"/>
<g>
	<path class="st2" d="M538.54,206.13c-2.88-4.27-8.47-4.96-13.2-5.22c-12.02-0.21-24.04-0.04-36.05-0.09   c-7.12,25.26-14.02,50.59-21.23,75.83c6.46,0.01,12.93,0.02,19.4-0.01c2.9-10.35,5.71-20.73,8.73-31.05   c2.88,0.23,6.51,1.23,6.92,4.62c1.91,8.74,2.9,17.66,4.59,26.45c7.22-0.05,14.45,0.09,21.68,0.04c-0.56-4.23-1.25-8.43-1.8-12.66   c-0.97-5.71-1.13-11.73-4.01-16.91c-0.97-1.97-3.12-2.81-4.83-3.97c9.31-2.17,16.9-9.6,19.92-18.57   C540.88,218.78,542.19,211.65,538.54,206.13z M513.07,230.6c-4.24,1.32-8.69,0.94-13.05,0.96c1.51-5.14,2.88-10.33,4.35-15.48   c4.33,0.14,8.77-0.52,13.01,0.68c1.52,0.43,2.72,1.85,2.77,3.47C520.42,224.69,517.56,229.5,513.07,230.6z"/>
</g>
<path class="st0" d="M21.76,243.64c6.09-8.04,12.46-15.57,20.84-21.29c6.98,5.73,13.35,9.17,22.77,11.92  c-4.6,8.07-8.71,16.66-9.93,25.97c-1.52,12.03-0.15,24.99,6.68,35.31c8.8,14.53,23.43,24.15,38.21,31.78  c25.75,14.06,53.78,23.44,82.2,30.41c27.4,6.42,55.22,10.78,82.96,15.4c2.99,0.47,8.29,1.46,8.29,1.46s-8.83,4.17-11.83,6  c-43.39-2.68-84.3-7.1-126.87-16.17c-23.49-4.55-46.61-11.06-68.99-19.53c-14.21-5.8-28.18-12.56-40.55-21.74  c-10.9-7.9-19.21-20.17-20.25-33.82C4.21,272.6,11.97,256.73,21.76,243.64"/>
<g>
	<path class="st0" d="M570.05,281.17l-2.43,8.25H449.21l-30.34,122.54h-40.28l-3.64,17.69h57.89l7.26-30.16l19.04,0.06l22.24-91.02   h100.36l6.7-27.36H570.05z M455.35,394.82l-14.22-0.01c0,0,14.1-57.25,21.43-86.28h14.66L455.35,394.82z"/>
</g>
<path class="st0" d="M305.79,382.4c0,0,2.91-1.8,5.13-3.68c5.69,0.89,19.68,2.89,19.68,2.89l-0.26,2.52  C321.59,383.85,313.31,383.32,305.79,382.4z"/>
<path class="st0" d="M381.04,386.7c3.33,0.21,17.96-0.44,18.41-0.43s0.53-0.71,0-0.99c-5.2-0.22-12.38-0.52-16.88-0.8  c-4.51-0.28-14.29-1.73-14.29-1.73c-1.66,1.15-1.99,2.41-3.4,3.33C364.88,386.08,377.71,386.49,381.04,386.7z"/>
<g>
	<path class="st2" d="M480.32,356.46l10.34-35.79h33.76l-1.18,4.08h-26.81l-3.28,11.4h27.31l-1.18,4.08h-27.31l-4.7,16.24H480.32z"/>
	<path class="st2" d="M524.6,356.46l10.38-35.79h37.48l-1.18,4.08h-30.53l-3.25,11.13h29.75l-1.18,4.08h-29.75l-3.58,12.45h32.69   l-1.18,4.05H524.6z"/>
	<path class="st2" d="M572.95,356.46l10.34-35.79h15.66c3.75,0,6.63,0.19,8.61,0.56c2.84,0.5,5.27,1.4,7.3,2.7   c2.02,1.29,3.56,2.91,4.6,4.85c1.04,1.94,1.58,4.11,1.61,6.52c0.04,2.88-0.56,5.51-1.79,7.87c-1.23,2.37-2.86,4.45-4.87,6.25   c-2.02,1.8-4.13,3.21-6.35,4.22c-2.22,1.02-4.85,1.77-7.88,2.26c-2.31,0.38-5.15,0.56-8.53,0.56H572.95z M581.07,352.4h8.22   c3.71,0,7-0.24,9.87-0.71c1.79-0.29,3.32-0.72,4.59-1.29c1.67-0.73,3.18-1.7,4.53-2.91c1.77-1.59,3.18-3.41,4.23-5.46   c1.05-2.04,1.55-4.37,1.51-6.97c-0.04-2.9-0.8-5.12-2.29-6.68c-1.48-1.55-3.36-2.58-5.64-3.09c-1.68-0.37-4.29-0.56-7.84-0.56   h-9.17L581.07,352.4z"/>
	<path class="st2" d="M626.82,356.46l10.38-35.79h37.48l-1.18,4.08h-30.53l-3.25,11.13h29.75l-1.18,4.08h-29.75l-3.58,12.45h32.69   l-1.18,4.05H626.82z"/>
	<path class="st2" d="M675.35,356.46l10.38-35.79h21.78c4.3,0,7.56,0.25,9.79,0.75c2.23,0.5,3.98,1.43,5.26,2.79   c1.28,1.37,1.94,3.09,1.97,5.18c0.04,2.91-1.31,5.33-4.04,7.25c-2.74,1.92-7.18,3.17-13.34,3.74c1.9,0.96,3.34,1.91,4.33,2.83   c2.2,2.1,3.98,4.27,5.33,6.52l4.06,6.74h-7.76l-3.81-6.67c-1.38-2.41-2.94-4.49-4.69-6.25c-1.2-1.22-2.41-2.02-3.65-2.4   c-1.23-0.38-3.23-0.57-5.99-0.57h-8.08l-4.6,15.89H675.35z M688,336.68h9.6c4.44,0,7.33-0.04,8.68-0.12   c2.62-0.18,4.76-0.59,6.43-1.22s2.96-1.49,3.86-2.56c0.91-1.07,1.35-2.23,1.33-3.47c-0.01-1.04-0.37-1.95-1.06-2.72   c-0.7-0.77-1.6-1.3-2.71-1.58c-1.11-0.28-3-0.42-5.67-0.42h-16.93L688,336.68z"/>
	<path class="st2" d="M724.33,356.46l28.94-35.79h8.18l9.07,35.79h-6.73l-2.66-10.3h-21l-8.18,10.3H724.33z M743.06,342.47h17.18   l-2.14-8.99c-0.83-3.56-1.35-6.53-1.58-8.91c-1.15,2.05-2.84,4.48-5.07,7.3L743.06,342.47z"/>
	<path class="st2" d="M783.82,356.46l9.16-31.71h-17.04l1.18-4.08H818l-1.18,4.08h-16.9l-9.16,31.71H783.82z"/>
	<path class="st2" d="M817.26,356.46l10.38-35.79h6.91l-10.34,35.79H817.26z"/>
	<path class="st2" d="M839.69,341.47c-0.09-6.38,2.51-11.54,7.81-15.49c5.29-3.95,11.75-5.92,19.38-5.92   c6.47,0,11.76,1.45,15.88,4.36c4.11,2.91,6.2,6.8,6.27,11.68c0.05,3.48-0.93,6.71-2.95,9.69c-1.5,2.23-3.41,4.16-5.73,5.77   c-2.32,1.62-4.8,2.87-7.46,3.75c-3.53,1.17-7.27,1.76-11.24,1.76c-4.16,0-7.95-0.68-11.38-2.05c-3.43-1.37-6.04-3.27-7.84-5.72   S839.72,344.23,839.69,341.47z M846.52,341.71c0.03,2.1,0.69,4.03,1.97,5.79c1.29,1.76,3.19,3.13,5.71,4.13   c2.52,0.99,5.16,1.49,7.92,1.49c2.67,0,5.2-0.44,7.6-1.31c2.4-0.87,4.54-2.08,6.42-3.64c1.88-1.55,3.35-3.47,4.42-5.74   c1.07-2.27,1.58-4.5,1.55-6.7c-0.05-3.56-1.54-6.4-4.46-8.52c-2.92-2.12-6.51-3.17-10.76-3.17c-5.43,0-10.2,1.6-14.31,4.8   C848.47,332.03,846.45,336.32,846.52,341.71z"/>
	<path class="st2" d="M894.69,356.46l10.38-35.79h6.73l8.93,13.43c2.72,4.1,4.89,7.55,6.48,10.35c0.92,1.63,1.99,3.83,3.21,6.59   c0.6-3.01,1.36-6.12,2.28-9.33l6.08-21.05h6.77l-10.34,35.79h-6.87l-13.18-20.68c-2.34-3.65-4.17-6.86-5.48-9.64   c-0.32,2.33-0.97,5.18-1.94,8.57l-6.29,21.75H894.69z"/>
</g>
</svg>